# xmcd
#
# Track frame offsets: 
#        150
#        26987
#        51407
#        72325
#        95045
#        110992
#        138357
#        156350
#        180185
#        202857
#
# Disc length: 3007 seconds
#
# Revision: 0
# Processed by: cddbd v1.5.2PL0 Copyright (c) Steve Scherf et al.
# Submitted via: ExactAudioCopy v1.0b3
#
DISCID=920bbd0a
DTITLE=Tuan Vu, Huong Lan - Ngai Ngung
DYEAR=1990
DGENRE=
TTITLE0=Giac mo tuyet voi
TTITLE1=Tuan Vu - Ngai ngung
TTITLE2=Huong Lan - Nguoi tinh
TTITLE3=Tuan Vu - Buom trang (Nguoi hang xom)
TTITLE4=Tuan Vu - Dua em ve
TTITLE5=Huong Lan - Duong ve que huong
TTITLE6=Tuan Vu - Nhat nang
TTITLE7=Tuan Vu - Ve mien Tay
TTITLE8=Tau ve que huong
TTITLE9=Tuan Vu - Duyen tinh
EXTD=
EXTT0=
EXTT1=
EXTT2=
EXTT3=
EXTT4=
EXTT5=
EXTT6=
EXTT7=
EXTT8=
EXTT9=
PLAYORDER=
